<svg width="500" height="432" viewBox="0 0 500 432" fill="none" xmlns="http://www.w3.org/2000/svg">
  <rect x="95.4546" y="0.0908203" width="145.455" height="145.455" rx="72.7273" fill="#0E1117" />
  <path
    d="M185.077 61.6905L169.148 84.7211C168.98 84.9653 168.735 85.1483 168.453 85.2421C168.17 85.336 167.865 85.3351 167.583 85.2408C167.301 85.1461 167.058 84.9623 166.89 84.7176C166.723 84.4726 166.64 84.1799 166.655 83.8841L167.293 71.1688L157.001 68.9862C156.781 68.9396 156.576 68.8397 156.405 68.6954C156.233 68.5511 156.1 68.3667 156.017 68.1587C155.933 67.9507 155.903 67.7255 155.929 67.5029C155.954 67.2804 156.034 67.0675 156.162 66.8829L172.09 43.8523C172.259 43.6079 172.503 43.4251 172.786 43.3313C173.069 43.2376 173.374 43.238 173.656 43.3328C173.938 43.4274 174.181 43.6112 174.348 43.856C174.516 44.1009 174.598 44.3935 174.583 44.6895L173.946 57.405L184.237 59.5874C184.457 59.634 184.662 59.7339 184.834 59.8782C185.006 60.0226 185.139 60.2069 185.222 60.4149C185.305 60.6229 185.335 60.8481 185.31 61.0706C185.285 61.2932 185.205 61.506 185.077 61.6905Z"
    fill="#FCC72B" />
  <path
    d="M168.396 104.044C167.973 104.044 167.553 103.961 167.162 103.799C166.77 103.637 166.415 103.399 166.115 103.099L151.065 88.0494C150.463 87.4442 150.125 86.6248 150.126 85.771C150.127 84.9173 150.467 84.0983 151.071 83.4949C151.675 82.891 152.493 82.5512 153.347 82.5499C154.201 82.549 155.02 82.8862 155.626 83.4883L168.396 96.2574L196.217 68.438C196.823 67.8413 197.641 67.5084 198.492 67.5119C199.343 67.5153 200.158 67.8548 200.759 68.4564C201.361 69.0581 201.701 69.873 201.704 70.7239C201.707 71.5747 201.374 72.3924 200.778 72.9989L170.676 103.099C170.377 103.399 170.022 103.637 169.63 103.799C169.239 103.961 168.82 104.044 168.396 104.044Z"
    fill="#729B1B" />
  <path
    d="M168.383 104.044C168.807 104.044 169.226 103.961 169.618 103.799C170.009 103.637 170.365 103.399 170.664 103.099L185.715 88.0494C186.317 87.4442 186.654 86.6248 186.653 85.771C186.652 84.9173 186.312 84.0983 185.709 83.4949C185.105 82.891 184.286 82.5512 183.432 82.5499C182.579 82.549 181.759 82.8862 181.154 83.4883L168.383 96.2574L140.562 68.438C139.956 67.8413 139.138 67.5084 138.287 67.5119C137.437 67.5153 136.622 67.8548 136.02 68.4564C135.418 69.0581 135.079 69.873 135.075 70.7239C135.072 71.5747 135.405 72.3924 136.002 72.9989L166.103 103.099C166.402 103.399 166.758 103.637 167.149 103.799C167.54 103.961 167.96 104.044 168.383 104.044Z"
    fill="#729B1B" fill-opacity="0.5" />
  <rect x="259.091" y="0.0908203" width="145.455" height="145.455" rx="72.7273" fill="#0E1117" />
  <path
    d="M317.832 84.4731H327.156V79.8111H336.48V61.1631H317.832V84.4731ZM327.156 65.8251H331.818V75.1491H327.156V65.8251ZM340.21 61.1631V79.8111H349.534V65.8251H354.196V79.8111H358.858V65.8251H363.52V79.8111H368.182V61.1631H340.21ZM295.455 79.8111H304.779V65.8251H309.441V79.8111H314.103V61.1631H295.455V79.8111Z"
    fill="#C54641" />
  <rect x="95.4546" y="286.454" width="145.455" height="145.455" rx="72.7273" fill="#0E1117" />
  <path
    d="M194.42 363.21C191.877 363.224 189.675 363.835 187.829 364.744C187.147 363.395 186.465 362.216 186.352 361.335C186.224 360.312 186.067 359.687 186.224 358.466C186.38 357.244 187.09 355.511 187.09 355.369C187.076 355.241 186.934 354.616 185.471 354.602C184.008 354.588 182.744 354.886 182.602 355.27C182.46 355.653 182.175 356.534 181.991 357.443C181.735 358.778 179.065 363.508 177.545 365.994C177.048 365.028 176.621 364.176 176.536 363.494C176.408 362.471 176.252 361.846 176.408 360.625C176.565 359.403 177.275 357.67 177.275 357.528C177.261 357.4 177.119 356.775 175.656 356.761C174.192 356.747 172.928 357.045 172.786 357.429C172.644 357.812 172.488 358.721 172.175 359.602C171.877 360.483 168.326 368.38 167.403 370.44C166.934 371.491 166.522 372.329 166.224 372.897C165.925 373.466 166.21 372.94 166.181 372.997C165.925 373.48 165.783 373.75 165.783 373.75V373.764C165.585 374.119 165.371 374.46 165.272 374.46C165.201 374.46 165.059 373.508 165.3 372.201C165.826 369.46 167.104 365.184 167.09 365.028C167.09 364.957 167.332 364.204 166.266 363.821C165.229 363.437 164.86 364.076 164.775 364.076C164.69 364.076 164.619 364.304 164.619 364.304C164.619 364.304 165.769 359.488 162.417 359.488C160.315 359.488 157.417 361.775 155.982 363.863C155.073 364.361 153.141 365.412 151.096 366.534C150.315 366.96 149.505 367.415 148.738 367.826L148.582 367.656C144.519 363.324 137.005 360.255 137.317 354.432C137.431 352.315 138.17 346.733 151.749 339.971C162.871 334.432 171.778 335.951 173.326 339.332C175.528 344.162 168.567 353.139 157.005 354.432C152.602 354.929 150.286 353.224 149.704 352.585C149.093 351.917 149.008 351.889 148.781 352.017C148.411 352.216 148.639 352.812 148.781 353.167C149.121 354.062 150.542 355.653 152.957 356.449C155.073 357.145 160.244 357.528 166.494 355.113C173.496 352.4 178.965 344.872 177.36 338.579C175.727 332.173 165.102 330.071 155.059 333.636C149.079 335.767 142.602 339.091 137.942 343.451C132.403 348.622 131.522 353.139 131.891 355.014C133.184 361.704 142.403 366.065 146.096 369.29C145.911 369.389 145.741 369.488 145.585 369.574C143.738 370.483 136.707 374.162 134.945 378.054C132.957 382.457 135.258 385.625 136.792 386.051C141.536 387.372 146.394 385 149.022 381.094C151.636 377.187 151.323 372.116 150.116 369.801L150.073 369.716L151.522 368.863C152.46 368.309 153.383 367.798 154.192 367.358C153.738 368.594 153.411 370.057 153.241 372.187C153.042 374.687 154.065 377.926 155.414 379.204C156.011 379.758 156.721 379.772 157.161 379.772C158.724 379.772 159.434 378.48 160.215 376.932C161.181 375.042 162.033 372.855 162.033 372.855C162.033 372.855 160.968 378.778 163.88 378.778C164.945 378.778 166.011 377.4 166.494 376.69V376.704C166.494 376.704 166.522 376.662 166.579 376.562C166.692 376.392 166.749 376.292 166.749 376.292V376.264C167.175 375.525 168.127 373.835 169.548 371.037C171.38 367.429 173.141 362.912 173.141 362.912C173.141 362.912 173.312 364.02 173.837 365.838C174.15 366.917 174.832 368.096 175.357 369.247C174.931 369.844 174.675 370.184 174.675 370.184L174.69 370.199C174.349 370.653 173.965 371.136 173.567 371.619C172.119 373.352 170.386 375.326 170.158 375.895C169.889 376.562 169.945 377.059 170.471 377.457C170.854 377.741 171.536 377.798 172.261 377.741C173.567 377.656 174.477 377.329 174.931 377.13C175.641 376.875 176.451 376.491 177.232 375.923C178.653 374.872 179.519 373.38 179.434 371.392C179.391 370.298 179.036 369.219 178.596 368.196C178.724 368.011 178.852 367.826 178.979 367.628C181.224 364.346 182.957 360.738 182.957 360.738C182.957 360.738 183.127 361.846 183.653 363.665C183.923 364.588 184.462 365.596 184.945 366.591C182.843 368.309 181.522 370.298 181.067 371.605C180.229 374.02 180.883 375.113 182.119 375.369C182.673 375.483 183.468 375.227 184.065 374.971C184.803 374.73 185.698 374.318 186.522 373.707C187.942 372.656 189.306 371.193 189.235 369.219C189.192 368.309 188.951 367.415 188.624 366.562C190.414 365.824 192.729 365.397 195.67 365.753C201.991 366.491 203.241 370.44 202.999 372.088C202.758 373.736 201.437 374.645 200.996 374.929C200.556 375.199 200.414 375.298 200.457 375.497C200.514 375.795 200.712 375.781 201.096 375.724C201.621 375.639 204.42 374.375 204.533 371.335C204.704 367.429 200.996 363.167 194.42 363.21ZM145.67 379.645C143.582 381.932 140.641 382.798 139.391 382.059C138.042 381.278 138.567 377.912 141.139 375.483C142.701 374.005 144.732 372.642 146.067 371.804C146.366 371.619 146.82 371.349 147.36 371.022C147.445 370.966 147.502 370.937 147.502 370.937C147.602 370.88 147.715 370.809 147.829 370.738C148.781 374.204 147.871 377.244 145.67 379.645ZM160.94 369.261C160.215 371.037 158.681 375.596 157.758 375.341C156.962 375.128 156.479 371.676 157.602 368.267C158.17 366.548 159.377 364.503 160.087 363.707C161.238 362.429 162.488 362.003 162.8 362.528C163.17 363.21 161.394 368.153 160.94 369.261ZM173.539 375.284C173.227 375.44 172.942 375.554 172.815 375.469C172.715 375.412 172.942 375.199 172.942 375.199C172.942 375.199 174.519 373.508 175.144 372.727C175.499 372.272 175.925 371.747 176.38 371.15V371.321C176.38 373.366 174.42 374.73 173.539 375.284ZM183.255 373.068C183.028 372.897 183.056 372.372 183.823 370.724C184.121 370.071 184.803 368.977 185.982 367.94C186.124 368.366 186.21 368.778 186.195 369.162C186.181 371.719 184.363 372.67 183.255 373.068Z"
    fill="#CF649A" />
  <rect x="259.091" y="286.454" width="145.455" height="145.455" rx="72.7273" fill="#0E1117" />
  <path fill-rule="evenodd" clip-rule="evenodd"
    d="M298.182 323.224H365.459C366.965 323.224 368.187 324.432 368.187 325.921V392.442C368.187 393.932 366.965 395.139 365.459 395.139H298.182C296.676 395.139 295.455 393.932 295.455 392.442V325.921C295.455 324.432 296.676 323.224 298.182 323.224ZM335.886 361.484V355.586H310.001V361.484H319.242V387.746H326.599V361.484H335.886ZM338.819 387.052C340.005 387.65 341.408 388.099 343.028 388.398C344.648 388.697 346.355 388.847 348.15 388.847C349.899 388.847 351.561 388.682 353.135 388.353C354.709 388.024 356.089 387.482 357.276 386.727C358.462 385.972 359.401 384.985 360.093 383.767C360.785 382.548 361.131 381.042 361.131 379.247C361.131 377.946 360.934 376.807 360.538 375.827C360.143 374.848 359.573 373.977 358.827 373.214C358.082 372.452 357.188 371.768 356.146 371.162C355.104 370.557 353.93 369.985 352.622 369.446C351.663 369.058 350.804 368.68 350.044 368.314C349.283 367.948 348.637 367.574 348.104 367.192C347.572 366.811 347.162 366.407 346.872 365.981C346.583 365.555 346.439 365.073 346.439 364.535C346.439 364.041 346.568 363.596 346.827 363.2C347.085 362.804 347.45 362.464 347.922 362.18C348.393 361.896 348.971 361.675 349.656 361.518C350.34 361.361 351.101 361.283 351.937 361.283C352.546 361.283 353.188 361.328 353.865 361.417C354.542 361.507 355.223 361.645 355.907 361.832C356.591 362.019 357.257 362.254 357.903 362.539C358.55 362.823 359.147 363.152 359.694 363.525V356.82C358.584 356.401 357.371 356.09 356.055 355.889C354.74 355.687 353.23 355.586 351.526 355.586C349.793 355.586 348.15 355.769 346.599 356.136C345.047 356.502 343.682 357.074 342.503 357.851C341.325 358.629 340.393 359.619 339.709 360.823C339.024 362.026 338.682 363.466 338.682 365.14C338.682 367.278 339.309 369.103 340.564 370.613C341.819 372.123 343.724 373.401 346.279 374.448C347.283 374.852 348.218 375.248 349.086 375.637C349.952 376.025 350.701 376.429 351.333 376.848C351.964 377.266 352.462 377.722 352.827 378.216C353.192 378.709 353.375 379.27 353.375 379.898C353.375 380.361 353.26 380.791 353.032 381.187C352.804 381.584 352.458 381.927 351.994 382.219C351.53 382.511 350.953 382.739 350.26 382.903C349.568 383.068 348.758 383.15 347.831 383.15C346.249 383.15 344.682 382.877 343.131 382.331C341.58 381.786 340.142 380.967 338.819 379.875V387.052Z"
    fill="#497AC6" />
  <rect y="141" width="145.455" height="145.455" rx="72.7273" fill="#0E1117" />
  <path
    d="M46.5587 244.382L44.3204 184.345C44.2866 183.392 44.6241 182.463 45.2607 181.756C45.8974 181.05 46.7828 180.622 47.7283 180.564L98.4135 177.371C98.9087 177.339 99.4052 177.41 99.8721 177.579C100.339 177.748 100.767 178.012 101.128 178.354C101.49 178.696 101.778 179.11 101.975 179.569C102.172 180.027 102.273 180.522 102.273 181.022V246.436C102.272 246.93 102.172 247.419 101.979 247.873C101.786 248.327 101.504 248.737 101.15 249.078C100.795 249.419 100.376 249.684 99.9165 249.858C99.4575 250.031 98.9683 250.109 98.4785 250.087L50.0243 247.894C49.114 247.853 48.2524 247.469 47.6105 246.817C46.9685 246.166 46.5931 245.299 46.5587 244.382Z"
    fill="#FF4785" />
  <path fill-rule="evenodd" clip-rule="evenodd"
    d="M95.1544 177.364L88.0055 177.798L87.6576 186C87.6534 186.103 87.679 186.204 87.7315 186.293C87.784 186.382 87.8612 186.455 87.9542 186.503C88.0472 186.55 88.1522 186.571 88.2569 186.563C88.3616 186.555 88.4617 186.518 88.5457 186.456L91.8019 184.039L94.5549 186.159C94.638 186.223 94.7383 186.263 94.8437 186.274C94.9492 186.284 95.0555 186.265 95.1501 186.218C95.2447 186.171 95.3235 186.099 95.3774 186.009C95.4313 185.92 95.4579 185.818 95.4541 185.714L95.1544 177.364ZM89.5892 204.825C88.283 205.82 78.5291 206.497 78.5291 205.082C78.7363 199.68 76.2645 199.445 74.888 199.445C73.5855 199.445 71.3876 199.828 71.3876 202.723C71.3876 205.672 74.5994 207.336 78.37 209.29C83.7243 212.065 90.2108 215.426 90.2108 223.878C90.2108 231.982 83.4763 236.454 74.8917 236.454C66.0296 236.454 58.2849 232.948 59.1582 220.795C59.5023 219.37 70.7696 219.71 70.7696 220.795C70.629 225.81 71.7983 227.286 74.7511 227.286C77.0194 227.286 78.048 226.063 78.048 224.008C78.048 220.893 74.703 219.055 70.851 216.942C65.6374 214.08 59.5023 210.712 59.5023 202.98C59.5023 195.266 64.9269 190.121 74.6142 190.121C84.3015 190.121 89.5892 195.186 89.5892 204.825Z"
    fill="white" />
  <rect x="143.182" y="211.454" width="36.3636" height="4.54545" fill="#0E1117" />
  <rect x="177.273" y="141" width="145.455" height="145.455" rx="72.7273" fill="#0E1117" />
  <path
    d="M285.579 188.079L252.456 247.309C251.772 248.531 250.015 248.539 249.321 247.322L215.541 188.085C214.785 186.759 215.919 185.152 217.422 185.421L250.58 191.348C250.792 191.386 251.008 191.385 251.22 191.347L283.685 185.429C285.182 185.156 286.322 186.75 285.579 188.079Z"
    fill="url(#paint0_linear_63_25)" />
  <path
    d="M266.375 177.647L241.863 182.45C241.46 182.529 241.162 182.87 241.138 183.28L239.63 208.746C239.594 209.346 240.145 209.811 240.731 209.676L247.555 208.101C248.194 207.954 248.771 208.516 248.639 209.159L246.612 219.087C246.475 219.755 247.103 220.327 247.755 220.129L251.97 218.848C252.624 218.65 253.252 219.223 253.114 219.891L249.891 235.487C249.69 236.462 250.987 236.994 251.528 236.158L251.89 235.599L271.864 195.738C272.198 195.071 271.621 194.31 270.888 194.451L263.864 195.807C263.204 195.934 262.642 195.32 262.828 194.674L267.413 178.78C267.6 178.133 267.036 177.517 266.375 177.647Z"
    fill="url(#paint1_linear_63_25)" />
  <rect x="320.455" y="211.454" width="36.3636" height="4.54545" fill="#0E1117" />
  <rect x="354.545" y="141" width="145.455" height="145.455" rx="72.7273" fill="#0E1117" />
  <path
    d="M427.23 220.615C431.058 220.615 434.161 217.512 434.161 213.685C434.161 209.857 431.058 206.754 427.23 206.754C423.403 206.754 420.3 209.857 420.3 213.685C420.3 217.512 423.403 220.615 427.23 220.615Z"
    fill="#6AC2DB" />
  <path
    d="M427.231 229.279C446.368 229.279 461.882 222.297 461.882 213.685C461.882 205.073 446.368 198.092 427.231 198.092C408.093 198.092 392.579 205.073 392.579 213.685C392.579 222.297 408.093 229.279 427.231 229.279Z"
    stroke="#6AC2DB" stroke-width="3.46517" />
  <path
    d="M413.727 221.482C423.296 238.056 437.099 248 444.557 243.694C452.015 239.389 450.304 222.462 440.735 205.889C431.166 189.315 417.363 179.37 409.905 183.676C402.447 187.982 404.158 204.908 413.727 221.482Z"
    stroke="#6AC2DB" stroke-width="3.46517" />
  <path
    d="M413.726 205.889C404.158 222.462 402.447 239.388 409.905 243.694C417.363 248 431.166 238.055 440.735 221.482C450.304 204.908 452.015 187.982 444.556 183.676C437.098 179.37 423.295 189.315 413.726 205.889Z"
    stroke="#6AC2DB" stroke-width="3.46517" />
  <rect x="196.881" y="168.367" width="36.3636" height="4.54545"
    transform="rotate(-135 196.881 168.367)" fill="#0E1117" />
  <rect x="300" y="162.88" width="36.3636" height="4.54545" transform="rotate(-45 300 162.88)"
    fill="#0E1117" />
  <rect x="300.942" y="263.727" width="36.3636" height="4.54545"
    transform="rotate(45 300.942 263.727)" fill="#0E1117" />
  <rect x="204.641" y="266.94" width="36.3636" height="4.54545"
    transform="rotate(135 204.641 266.94)" fill="#0E1117" />
  <defs>
    <linearGradient id="paint0_linear_63_25" x1="214.716" y1="183.304" x2="255.94" y2="239.29"
      gradientUnits="userSpaceOnUse">
      <stop stop-color="#41D1FF" />
      <stop offset="1" stop-color="#BD34FE" />
    </linearGradient>
    <linearGradient id="paint1_linear_63_25" x1="248.677" y1="178.951" x2="256.134" y2="230.107"
      gradientUnits="userSpaceOnUse">
      <stop stop-color="#FFEA83" />
      <stop offset="0.0833333" stop-color="#FFDD35" />
      <stop offset="1" stop-color="#FFA800" />
    </linearGradient>
    <clipPath id="clip0_63_25">
      <rect width="500" height="431.818" fill="white" transform="translate(0 0.0908203)" />
    </clipPath>
    <clipPath id="clip1_63_25">
      <rect width="72.7273" height="72.7273" fill="white" transform="translate(295.455 36.4545)" />
    </clipPath>
    <clipPath id="clip2_63_25">
      <rect width="72.7273" height="72.7273" fill="white" transform="translate(131.818 322.818)" />
    </clipPath>
    <clipPath id="clip3_63_25">
      <rect width="72.7273" height="72.7273" fill="white" transform="translate(295.455 322.818)" />
    </clipPath>
    <clipPath id="clip4_63_25">
      <rect width="72.7273" height="72.7273" fill="white" transform="translate(36.3635 177.364)" />
    </clipPath>
    <clipPath id="clip5_63_25">
      <rect width="72.7273" height="72.7273" fill="white" transform="translate(213.636 177.364)" />
    </clipPath>
    <clipPath id="clip6_63_25">
      <rect width="72.7273" height="72.7273" fill="white" transform="translate(390.909 177.364)" />
    </clipPath>
  </defs>
</svg>
  